<svg xmlns="http://www.w3.org/2000/svg" width="1400" height="1050" viewBox="0 0 1400 1050">
  <defs>
    <linearGradient id="bg" x1="0" y1="0" x2="1" y2="1">
      <stop offset="0" stop-color="#8A5458"/>
      <stop offset="0.55" stop-color="#281A1B"/>
      <stop offset="1" stop-color="#281A1B"/>
    </linearGradient>
    <radialGradient id="glow" cx="0.5" cy="0.38" r="0.75">
      <stop offset="0" stop-color="#D98A90" stop-opacity="0.5"/>
      <stop offset="0.55" stop-color="#D98A90" stop-opacity="0.12"/>
      <stop offset="1" stop-color="#D98A90" stop-opacity="0"/>
    </radialGradient>
    <filter id="grain">
      <feTurbulence type="fractalNoise" baseFrequency="0.9" numOctaves="2" stitchTiles="stitch"/>
      <feColorMatrix type="saturate" values="0"/>
    </filter>
  </defs>
  <rect width="1400" height="1050" fill="url(#bg)"/>
  <rect width="1400" height="1050" fill="url(#glow)"/>
  <circle cx="636" cy="477" r="210" fill="#FAEBED" opacity="0.082"/>
  <circle cx="598" cy="489" r="130" fill="#FAEBED" opacity="0.060"/>
  <circle cx="603" cy="119" r="137" fill="#FAEBED" opacity="0.059"/>
  <circle cx="674" cy="148" r="147" fill="#FAEBED" opacity="0.078"/>
  <!-- venue arch motif -->
  <g opacity="0.9">
    <path d="M 457 945 L 457 574 A 238 238 0 0 1 933 574 L 933 945 Z" fill="#D98A90" opacity="0.14" stroke="#D98A90" stroke-opacity="0.5" stroke-width="2"/>
    <path d="M 483 945 L 483 574 A 212 212 0 0 1 907 574 L 907 945 Z" fill="none" stroke="#FAEBED" stroke-opacity="0.22" stroke-width="1.5"/>
  </g>
  <text x="50%" y="46%" text-anchor="middle" dominant-baseline="middle" font-family="Georgia, 'Times New Roman', serif" font-style="italic" font-size="441" fill="#FAEBED" opacity="0.13">M</text>
  <text x="50%" y="913" text-anchor="middle" font-family="Georgia, serif" letter-spacing="16" font-size="58" fill="#FAEBED" opacity="0.92">MILESTONE ANNIVERSARIES</text>
  <g font-family="Georgia, serif" font-size="25" fill="#FAEBED" opacity="0.55" letter-spacing="13">
    <text x="50%" y="961" text-anchor="middle">WEDLOCK · THOUGHTFULLY PRODUCED</text>
  </g>
  <circle cx="50%" cy="992" r="9" fill="#D98A90"/>
  <rect width="1400" height="1050" filter="url(#grain)" opacity="0.05"/>
</svg>
