<svg xmlns="http://www.w3.org/2000/svg" width="1400" height="1050" viewBox="0 0 1400 1050">
  <defs>
    <linearGradient id="bg" x1="0" y1="0" x2="1" y2="1">
      <stop offset="0" stop-color="#2C554C"/>
      <stop offset="0.55" stop-color="#14201E"/>
      <stop offset="1" stop-color="#14201E"/>
    </linearGradient>
    <radialGradient id="glow" cx="0.5" cy="0.38" r="0.75">
      <stop offset="0" stop-color="#8FB39F" stop-opacity="0.5"/>
      <stop offset="0.55" stop-color="#8FB39F" stop-opacity="0.12"/>
      <stop offset="1" stop-color="#8FB39F" stop-opacity="0"/>
    </radialGradient>
    <filter id="grain">
      <feTurbulence type="fractalNoise" baseFrequency="0.9" numOctaves="2" stitchTiles="stitch"/>
      <feColorMatrix type="saturate" values="0"/>
    </filter>
  </defs>
  <rect width="1400" height="1050" fill="url(#bg)"/>
  <rect width="1400" height="1050" fill="url(#glow)"/>
  <circle cx="689" cy="516" r="219" fill="#E9F0E8" opacity="0.084"/>
  <circle cx="683" cy="18" r="118" fill="#E9F0E8" opacity="0.050"/>
  <circle cx="634" cy="6" r="107" fill="#E9F0E8" opacity="0.081"/>
  <circle cx="628" cy="2" r="204" fill="#E9F0E8" opacity="0.084"/>
  <!-- venue arch motif -->
  <g opacity="0.9">
    <path d="M 449 945 L 449 574 A 238 238 0 0 1 925 574 L 925 945 Z" fill="#8FB39F" opacity="0.14" stroke="#8FB39F" stroke-opacity="0.5" stroke-width="2"/>
    <path d="M 475 945 L 475 574 A 212 212 0 0 1 899 574 L 899 945 Z" fill="none" stroke="#E9F0E8" stroke-opacity="0.22" stroke-width="1.5"/>
  </g>
  <text x="50%" y="46%" text-anchor="middle" dominant-baseline="middle" font-family="Georgia, 'Times New Roman', serif" font-style="italic" font-size="441" fill="#E9F0E8" opacity="0.13">G</text>
  <text x="50%" y="913" text-anchor="middle" font-family="Georgia, serif" letter-spacing="16" font-size="58" fill="#E9F0E8" opacity="0.92">GOA</text>
  <g font-family="Georgia, serif" font-size="25" fill="#E9F0E8" opacity="0.55" letter-spacing="13">
    <text x="50%" y="961" text-anchor="middle">WEDLOCK · THOUGHTFULLY PRODUCED</text>
  </g>
  <circle cx="50%" cy="992" r="9" fill="#8FB39F"/>
  <rect width="1400" height="1050" filter="url(#grain)" opacity="0.05"/>
</svg>
