<svg xmlns="http://www.w3.org/2000/svg" width="1400" height="1050" viewBox="0 0 1400 1050">
  <defs>
    <linearGradient id="bg" x1="0" y1="0" x2="1" y2="1">
      <stop offset="0" stop-color="#5E5138"/>
      <stop offset="0.55" stop-color="#232019"/>
      <stop offset="1" stop-color="#232019"/>
    </linearGradient>
    <radialGradient id="glow" cx="0.5" cy="0.38" r="0.75">
      <stop offset="0" stop-color="#C9A24B" stop-opacity="0.5"/>
      <stop offset="0.55" stop-color="#C9A24B" stop-opacity="0.12"/>
      <stop offset="1" stop-color="#C9A24B" stop-opacity="0"/>
    </radialGradient>
    <filter id="grain">
      <feTurbulence type="fractalNoise" baseFrequency="0.9" numOctaves="2" stitchTiles="stitch"/>
      <feColorMatrix type="saturate" values="0"/>
    </filter>
  </defs>
  <rect width="1400" height="1050" fill="url(#bg)"/>
  <rect width="1400" height="1050" fill="url(#glow)"/>
  <circle cx="448" cy="336" r="179" fill="#F1EAD9" opacity="0.072"/>
  <circle cx="431" cy="210" r="157" fill="#F1EAD9" opacity="0.063"/>
  <circle cx="437" cy="239" r="161" fill="#F1EAD9" opacity="0.068"/>
  <circle cx="420" cy="202" r="162" fill="#F1EAD9" opacity="0.077"/>
  <!-- venue arch motif -->
  <g opacity="0.9">
    <path d="M 412 945 L 412 574 A 238 238 0 0 1 888 574 L 888 945 Z" fill="#C9A24B" opacity="0.14" stroke="#C9A24B" stroke-opacity="0.5" stroke-width="2"/>
    <path d="M 438 945 L 438 574 A 212 212 0 0 1 862 574 L 862 945 Z" fill="none" stroke="#F1EAD9" stroke-opacity="0.22" stroke-width="1.5"/>
  </g>
  <text x="50%" y="46%" text-anchor="middle" dominant-baseline="middle" font-family="Georgia, 'Times New Roman', serif" font-style="italic" font-size="441" fill="#F1EAD9" opacity="0.13">R</text>
  <text x="50%" y="913" text-anchor="middle" font-family="Georgia, serif" letter-spacing="16" font-size="58" fill="#F1EAD9" opacity="0.92">REAL MEHTA</text>
  <g font-family="Georgia, serif" font-size="25" fill="#F1EAD9" opacity="0.55" letter-spacing="13">
    <text x="50%" y="961" text-anchor="middle">WEDLOCK · THOUGHTFULLY PRODUCED</text>
  </g>
  <circle cx="50%" cy="992" r="9" fill="#C9A24B"/>
  <rect width="1400" height="1050" filter="url(#grain)" opacity="0.05"/>
</svg>
