<svg xmlns="http://www.w3.org/2000/svg" width="1200" height="1500" viewBox="0 0 1200 1500">
  <defs>
    <linearGradient id="bg" x1="0" y1="0" x2="1" y2="1">
      <stop offset="0" stop-color="#4A3826"/>
      <stop offset="0.55" stop-color="#241B14"/>
      <stop offset="1" stop-color="#241B14"/>
    </linearGradient>
    <radialGradient id="glow" cx="0.5" cy="0.38" r="0.75">
      <stop offset="0" stop-color="#C9A24B" stop-opacity="0.5"/>
      <stop offset="0.55" stop-color="#C9A24B" stop-opacity="0.12"/>
      <stop offset="1" stop-color="#C9A24B" stop-opacity="0"/>
    </radialGradient>
    <filter id="grain">
      <feTurbulence type="fractalNoise" baseFrequency="0.9" numOctaves="2" stitchTiles="stitch"/>
      <feColorMatrix type="saturate" values="0"/>
    </filter>
  </defs>
  <rect width="1200" height="1500" fill="url(#bg)"/>
  <rect width="1200" height="1500" fill="url(#glow)"/>
  <circle cx="125" cy="157" r="148" fill="#F6EBDA" opacity="0.057"/>
  <circle cx="177" cy="163" r="171" fill="#F6EBDA" opacity="0.061"/>
  <circle cx="172" cy="286" r="168" fill="#F6EBDA" opacity="0.076"/>
  <circle cx="111" cy="245" r="222" fill="#F6EBDA" opacity="0.076"/>
  <!-- venue arch motif -->
  <g opacity="0.9">
    <path d="M 308 1350 L 308 684 A 204 204 0 0 1 716 684 L 716 1350 Z" fill="#C9A24B" opacity="0.14" stroke="#C9A24B" stroke-opacity="0.5" stroke-width="2"/>
    <path d="M 334 1350 L 334 684 A 178 178 0 0 1 690 684 L 690 1350 Z" fill="none" stroke="#F6EBDA" stroke-opacity="0.22" stroke-width="1.5"/>
  </g>
  <text x="50%" y="46%" text-anchor="middle" dominant-baseline="middle" font-family="Georgia, 'Times New Roman', serif" font-style="italic" font-size="504" fill="#F6EBDA" opacity="0.13">A</text>
  <text x="50%" y="1305" text-anchor="middle" font-family="Georgia, serif" letter-spacing="18" font-size="66" fill="#F6EBDA" opacity="0.92">ABOUT SMALL</text>
  <g font-family="Georgia, serif" font-size="29" fill="#F6EBDA" opacity="0.55" letter-spacing="15">
    <text x="50%" y="1372" text-anchor="middle">WEDLOCK · THOUGHTFULLY PRODUCED</text>
  </g>
  <circle cx="50%" cy="1417" r="10" fill="#C9A24B"/>
  <rect width="1200" height="1500" filter="url(#grain)" opacity="0.05"/>
</svg>
