<svg xmlns="http://www.w3.org/2000/svg" width="1400" height="1050" viewBox="0 0 1400 1050">
  <defs>
    <linearGradient id="bg" x1="0" y1="0" x2="1" y2="1">
      <stop offset="0" stop-color="#5C4A2E"/>
      <stop offset="0.55" stop-color="#221A13"/>
      <stop offset="1" stop-color="#221A13"/>
    </linearGradient>
    <radialGradient id="glow" cx="0.5" cy="0.38" r="0.75">
      <stop offset="0" stop-color="#C9A24B" stop-opacity="0.5"/>
      <stop offset="0.55" stop-color="#C9A24B" stop-opacity="0.12"/>
      <stop offset="1" stop-color="#C9A24B" stop-opacity="0"/>
    </radialGradient>
    <filter id="grain">
      <feTurbulence type="fractalNoise" baseFrequency="0.9" numOctaves="2" stitchTiles="stitch"/>
      <feColorMatrix type="saturate" values="0"/>
    </filter>
  </defs>
  <rect width="1400" height="1050" fill="url(#bg)"/>
  <rect width="1400" height="1050" fill="url(#glow)"/>
  <circle cx="629" cy="471" r="209" fill="#F4EAD7" opacity="0.081"/>
  <circle cx="634" cy="478" r="205" fill="#F4EAD7" opacity="0.083"/>
  <circle cx="661" cy="466" r="204" fill="#F4EAD7" opacity="0.080"/>
  <circle cx="667" cy="495" r="201" fill="#F4EAD7" opacity="0.054"/>
  <!-- venue arch motif -->
  <g opacity="0.9">
    <path d="M 456 945 L 456 574 A 238 238 0 0 1 932 574 L 932 945 Z" fill="#C9A24B" opacity="0.14" stroke="#C9A24B" stroke-opacity="0.5" stroke-width="2"/>
    <path d="M 482 945 L 482 574 A 212 212 0 0 1 906 574 L 906 945 Z" fill="none" stroke="#F4EAD7" stroke-opacity="0.22" stroke-width="1.5"/>
  </g>
  <text x="50%" y="46%" text-anchor="middle" dominant-baseline="middle" font-family="Georgia, 'Times New Roman', serif" font-style="italic" font-size="441" fill="#F4EAD7" opacity="0.13">E</text>
  <text x="50%" y="913" text-anchor="middle" font-family="Georgia, serif" letter-spacing="16" font-size="58" fill="#F4EAD7" opacity="0.92">ENGAGEMENT JAIPUR</text>
  <g font-family="Georgia, serif" font-size="25" fill="#F4EAD7" opacity="0.55" letter-spacing="13">
    <text x="50%" y="961" text-anchor="middle">WEDLOCK · THOUGHTFULLY PRODUCED</text>
  </g>
  <circle cx="50%" cy="992" r="9" fill="#C9A24B"/>
  <rect width="1400" height="1050" filter="url(#grain)" opacity="0.05"/>
</svg>
