<svg xmlns="http://www.w3.org/2000/svg" width="1600" height="1200" viewBox="0 0 1600 1200">
  <defs>
    <linearGradient id="bg" x1="0" y1="0" x2="1" y2="1">
      <stop offset="0" stop-color="#8A4634"/>
      <stop offset="0.55" stop-color="#2A1913"/>
      <stop offset="1" stop-color="#2A1913"/>
    </linearGradient>
    <radialGradient id="glow" cx="0.5" cy="0.38" r="0.75">
      <stop offset="0" stop-color="#E2725B" stop-opacity="0.5"/>
      <stop offset="0.55" stop-color="#E2725B" stop-opacity="0.12"/>
      <stop offset="1" stop-color="#E2725B" stop-opacity="0"/>
    </radialGradient>
    <filter id="grain">
      <feTurbulence type="fractalNoise" baseFrequency="0.9" numOctaves="2" stitchTiles="stitch"/>
      <feColorMatrix type="saturate" values="0"/>
    </filter>
  </defs>
  <rect width="1600" height="1200" fill="url(#bg)"/>
  <rect width="1600" height="1200" fill="url(#glow)"/>
  <circle cx="638" cy="479" r="225" fill="#FBE8DF" opacity="0.078"/>
  <circle cx="719" cy="549" r="218" fill="#FBE8DF" opacity="0.078"/>
  <circle cx="713" cy="450" r="221" fill="#FBE8DF" opacity="0.061"/>
  <circle cx="707" cy="483" r="176" fill="#FBE8DF" opacity="0.068"/>
  <!-- venue arch motif -->
  <g opacity="0.9">
    <path d="M 511 1080 L 511 656 A 272 272 0 0 1 1055 656 L 1055 1080 Z" fill="#E2725B" opacity="0.14" stroke="#E2725B" stroke-opacity="0.5" stroke-width="2"/>
    <path d="M 537 1080 L 537 656 A 246 246 0 0 1 1029 656 L 1029 1080 Z" fill="none" stroke="#FBE8DF" stroke-opacity="0.22" stroke-width="1.5"/>
  </g>
  <text x="50%" y="46%" text-anchor="middle" dominant-baseline="middle" font-family="Georgia, 'Times New Roman', serif" font-style="italic" font-size="504" fill="#FBE8DF" opacity="0.13">B</text>
  <text x="50%" y="1044" text-anchor="middle" font-family="Georgia, serif" letter-spacing="18" font-size="66" fill="#FBE8DF" opacity="0.92">BIRTHDAYS</text>
  <g font-family="Georgia, serif" font-size="29" fill="#FBE8DF" opacity="0.55" letter-spacing="15">
    <text x="50%" y="1098" text-anchor="middle">WEDLOCK · THOUGHTFULLY PRODUCED</text>
  </g>
  <circle cx="50%" cy="1134" r="10" fill="#E2725B"/>
  <rect width="1600" height="1200" filter="url(#grain)" opacity="0.05"/>
</svg>
